<?xml version="1.0" standalone="no"?>
<!DOCTYPE svg PUBLIC "-//W3C//DTD SVG 20010904//EN"
 "http://www.w3.org/TR/2001/REC-SVG-20010904/DTD/svg10.dtd">
<svg version="1.0" xmlns="http://www.w3.org/2000/svg"
 width="260.000000pt" height="260.000000pt" viewBox="0 0 260.000000 260.000000"
 preserveAspectRatio="xMidYMid meet">
<metadata>
Created by potrace 1.14, written by Peter Selinger 2001-2017
</metadata>
<g transform="translate(0.000000,260.000000) scale(0.100000,-0.100000)"
fill="#000000" stroke="none">
<path d="M270 2175 c9 -10 7 -13 -7 -11 -52 8 -133 -55 -133 -104 0 -15 -6
-32 -12 -39 -10 -11 -10 -13 0 -7 16 9 16 -6 0 -23 -10 -11 -10 -13 0 -7 8 5
12 -1 12 -18 0 -13 -6 -27 -12 -29 -10 -4 -10 -6 0 -6 6 -1 12 -8 12 -17 0 -8
-4 -12 -10 -9 -5 3 -10 1 -10 -4 0 -6 5 -11 11 -11 8 0 7 -6 -2 -17 -10 -11
-10 -14 -1 -9 8 5 12 -1 12 -18 0 -14 -6 -26 -12 -26 -10 0 -10 -2 0 -8 13 -9
12 -38 -2 -61 -6 -10 -5 -12 2 -7 8 5 12 -1 12 -18 0 -13 -6 -27 -12 -29 -10
-4 -10 -6 0 -6 6 -1 12 -8 12 -17 0 -8 -4 -12 -10 -9 -5 3 -10 1 -10 -4 0 -6
5 -11 10 -11 14 0 12 -43 -2 -59 -10 -11 -10 -12 -1 -7 9 5 12 -3 11 -28 -1
-19 -4 -33 -8 -31 -4 2 -7 -2 -7 -10 0 -8 4 -12 9 -9 4 3 8 -6 8 -20 0 -13 -6
-27 -12 -29 -10 -4 -10 -6 0 -6 6 -1 12 -8 12 -17 0 -8 -4 -12 -10 -9 -5 3
-10 1 -10 -4 0 -6 5 -11 11 -11 8 0 7 -6 -2 -17 -10 -11 -10 -14 -1 -9 8 5 12
-1 12 -18 0 -14 -6 -26 -12 -26 -10 0 -10 -2 0 -8 13 -9 12 -38 -2 -61 -6 -10
-5 -12 2 -7 8 5 12 -1 12 -18 0 -13 -6 -27 -13 -29 -9 -4 -9 -6 1 -6 6 -1 12
-8 12 -17 0 -8 -5 -12 -10 -9 -6 3 -10 1 -10 -4 0 -6 5 -11 10 -11 14 0 12
-43 -3 -59 -9 -11 -9 -12 0 -7 9 5 12 -3 11 -28 -1 -19 -4 -33 -8 -31 -4 2 -7
-2 -7 -10 0 -8 4 -12 9 -9 4 3 8 -6 8 -20 0 -13 -6 -27 -12 -29 -10 -4 -10 -6
0 -6 6 -1 12 -8 12 -17 0 -8 -4 -12 -10 -9 -5 3 -10 1 -10 -4 0 -6 5 -11 11
-11 8 0 7 -6 -2 -17 -10 -11 -10 -14 -1 -9 8 5 12 -1 12 -18 0 -14 -6 -26 -12
-26 -10 0 -10 -2 0 -8 13 -9 12 -38 -2 -61 -6 -10 -5 -12 2 -7 16 9 13 -76 -2
-86 -8 -5 -7 -8 2 -8 6 0 12 -9 12 -20 0 -12 7 -20 17 -20 9 0 25 -8 35 -17
15 -14 21 -14 31 -3 8 9 9 11 0 6 -6 -3 -15 -1 -19 6 -4 7 -4 10 1 6 14 -13
45 11 38 30 -6 15 -5 16 12 2 19 -15 19 -14 2 12 -16 26 -16 28 1 37 16 10 16
10 -1 11 -10 0 -15 5 -12 10 4 6 11 8 16 5 5 -3 6 1 3 9 -3 9 -9 14 -14 11 -7
-5 -5 43 3 51 4 4 140 8 174 5 7 -1 10 -8 7 -16 -4 -8 0 -23 7 -32 10 -12 10
-15 2 -9 -18 10 -18 -55 0 -73 10 -11 10 -13 0 -7 -9 5 -13 0 -13 -14 0 -14 4
-19 13 -14 6 4 3 -3 -8 -16 -19 -22 -19 -23 -1 -16 16 5 17 4 6 -9 -9 -11 -9
-15 -1 -15 8 0 6 -6 -4 -16 -9 -9 -13 -19 -10 -22 3 -4 10 0 15 8 6 8 10 11
10 5 0 -24 -20 -36 -58 -38 -33 -2 -42 -6 -42 -19 0 -10 -7 -18 -17 -18 -15 0
-15 -1 2 -13 10 -8 15 -18 12 -24 -3 -5 1 -20 9 -32 13 -17 19 -20 30 -10 10
8 14 8 14 0 0 -6 7 -11 16 -11 9 0 12 5 8 13 -5 8 -2 8 9 -2 12 -10 17 -10 17
-2 0 8 6 7 16 -3 14 -14 34 -14 34 0 0 3 -5 2 -10 -1 -6 -3 -10 -1 -10 4 0 16
20 13 26 -4 4 -8 10 -12 15 -9 5 3 7 9 5 13 -3 4 5 8 17 8 17 2 19 0 7 -7 -13
-8 -13 -10 2 -10 9 0 19 6 21 13 4 9 6 8 6 -2 1 -11 4 -11 16 -1 13 11 14 10
9 -4 -8 -21 5 -21 22 2 8 10 13 12 14 5 0 -7 7 -13 16 -13 9 0 12 5 8 13 -5 8
-2 8 9 -2 12 -10 17 -10 17 -2 0 8 6 7 16 -3 14 -14 34 -14 34 0 0 3 -5 2 -10
-1 -6 -3 -10 -1 -10 4 0 16 20 13 26 -4 4 -8 10 -12 15 -9 5 3 7 9 5 13 -3 4
5 8 17 8 17 2 19 0 7 -7 -13 -8 -12 -10 3 -10 9 0 17 6 17 13 0 7 5 5 11 -5 5
-9 16 -15 24 -12 8 4 13 9 11 13 -3 4 4 7 14 7 10 0 16 -6 13 -13 -4 -9 0 -11
11 -7 9 3 13 11 9 18 -4 6 1 5 10 -3 12 -10 17 -10 17 -2 0 9 4 8 14 -1 17
-17 89 -12 79 6 -3 6 -1 6 8 -1 18 -17 83 -17 73 0 -6 10 -4 10 7 0 7 -7 28
-13 47 -13 24 0 31 4 26 13 -6 9 -4 9 7 -1 7 -6 28 -12 47 -12 24 0 31 4 26
12 -6 11 -4 11 7 1 7 -7 17 -13 22 -13 4 0 5 6 2 13 -4 6 1 3 9 -7 14 -17 20
-16 18 4 0 3 9 7 21 7 17 2 19 0 7 -7 -13 -8 -13 -10 2 -10 9 0 19 6 21 13 4
9 6 8 6 -2 1 -11 4 -11 16 -1 13 11 14 10 9 -4 -8 -21 5 -21 22 1 8 11 13 13
14 6 0 -7 7 -13 16 -13 9 0 12 5 8 13 -5 8 -2 8 9 -2 12 -10 17 -10 17 -2 0 8
6 7 16 -3 14 -14 34 -14 34 0 0 3 -4 2 -10 -1 -5 -3 -10 -1 -10 4 0 16 20 13
26 -4 4 -8 10 -12 15 -9 5 3 7 9 5 13 -3 4 5 8 17 8 17 2 19 0 7 -7 -12 -8
-10 -10 8 -10 15 0 21 4 17 13 -4 6 1 3 9 -7 14 -17 20 -16 18 4 0 3 9 7 21 7
17 2 19 0 7 -7 -13 -8 -13 -10 2 -10 9 0 19 6 21 13 4 9 6 8 6 -2 1 -11 4 -11
16 -1 13 11 14 10 9 -4 -8 -21 5 -21 22 2 8 10 13 12 14 5 0 -7 7 -13 16 -13
9 0 12 5 8 12 -5 9 -2 9 9 -1 12 -10 17 -10 17 -2 0 8 6 7 16 -3 14 -14 34
-14 34 0 0 3 -4 2 -10 -1 -5 -3 -10 -1 -10 4 0 16 20 13 26 -4 4 -8 10 -12 15
-9 5 3 7 9 5 13 -3 4 5 8 17 8 17 2 19 0 7 -7 -11 -7 -1 -10 33 -10 36 0 46 3
41 13 -6 10 -4 10 7 0 18 -17 83 -17 73 -1 -6 11 -4 11 7 1 7 -7 28 -13 47
-13 24 0 31 4 26 13 -6 10 -4 10 7 0 7 -7 28 -13 47 -13 24 0 31 3 26 13 -5 8
-2 8 9 -2 14 -11 17 -11 17 0 0 11 2 11 9 0 5 -8 19 -15 30 -16 14 -1 18 2 12
9 -6 7 -1 12 16 13 19 1 22 -1 12 -8 -11 -7 -11 -9 4 -9 9 0 17 5 17 10 0 6
13 10 30 10 31 0 80 40 80 66 0 8 4 12 10 9 6 -4 10 10 10 35 0 23 4 39 8 36
5 -3 9 1 9 9 0 8 -4 12 -9 9 -4 -3 -8 0 -8 5 0 6 6 11 13 11 8 0 7 4 -3 10
-13 9 -13 11 0 20 10 7 11 10 2 10 -8 0 -12 15 -10 45 1 39 3 43 17 32 14 -10
14 -10 4 4 -7 9 -9 20 -5 24 4 5 1 5 -5 1 -7 -4 -13 -2 -13 3 0 6 6 11 13 11
8 0 7 4 -3 10 -13 9 -13 11 0 20 10 7 11 10 2 10 -8 0 -12 15 -10 45 1 39 3
43 17 32 14 -10 14 -10 4 4 -7 9 -9 20 -5 24 4 5 1 5 -5 1 -7 -4 -13 -2 -13 3
0 6 6 11 13 11 8 0 7 4 -3 10 -13 9 -13 11 0 20 10 7 11 10 2 10 -8 0 -12 15
-10 45 1 39 3 43 17 32 14 -10 14 -10 4 4 -7 9 -9 20 -5 24 4 5 1 5 -5 1 -7
-4 -13 -2 -13 3 0 6 6 11 13 11 8 0 7 4 -3 10 -13 9 -13 11 0 20 10 7 11 10 2
10 -8 0 -12 15 -10 45 1 39 3 43 17 32 14 -10 14 -10 4 4 -7 9 -9 20 -5 24 4
5 1 5 -5 1 -7 -4 -13 -2 -13 3 0 6 6 11 13 11 8 0 7 4 -3 10 -13 9 -13 11 0
20 10 7 11 10 2 10 -8 0 -12 15 -10 45 1 39 3 43 17 32 14 -10 14 -10 4 4 -7
9 -9 20 -5 24 4 5 1 5 -5 1 -7 -4 -13 -2 -13 3 0 6 6 11 13 11 8 0 7 4 -3 10
-13 9 -13 11 0 20 10 7 11 10 2 10 -8 0 -12 15 -10 45 1 39 3 43 17 32 14 -10
14 -10 4 4 -7 9 -9 20 -5 24 4 5 1 5 -5 1 -7 -4 -13 -2 -13 3 0 6 6 11 13 11
8 0 7 4 -3 10 -13 9 -13 11 0 20 10 7 11 10 2 10 -8 0 -12 15 -10 45 1 39 3
43 17 32 14 -10 14 -10 4 4 -7 9 -9 20 -5 24 4 5 1 5 -5 1 -7 -4 -13 -2 -13 3
0 6 6 11 13 11 8 0 7 4 -3 10 -13 9 -13 11 0 20 10 7 11 10 2 10 -8 0 -12 15
-10 45 1 39 3 43 17 32 14 -10 14 -10 4 4 -7 9 -9 20 -5 24 4 5 1 5 -5 1 -7
-4 -13 -2 -13 3 0 6 6 11 13 11 8 0 7 4 -3 10 -13 9 -13 11 0 20 11 7 12 10 2
10 -9 0 -13 11 -12 33 4 67 0 118 -9 113 -5 -4 -13 8 -17 26 -4 18 -9 28 -11
21 -3 -8 -11 -5 -24 8 -10 10 -26 19 -35 19 -8 0 -13 4 -10 9 4 5 -2 8 -11 6
-10 -2 -18 -4 -18 -6 0 -1 -12 -2 -27 -3 -15 -1 -24 2 -22 6 3 4 -2 8 -11 8
-10 0 -14 -5 -9 -12 6 -10 4 -10 -7 0 -14 13 -43 17 -36 5 3 -5 -6 -9 -19 -9
-23 -2 -24 -1 -7 11 16 12 14 13 -12 8 -17 -2 -37 -7 -45 -10 -8 -3 -24 -8
-35 -10 -16 -2 -17 -1 -5 7 12 8 9 10 -13 10 -20 0 -26 -4 -21 -12 6 -10 4
-10 -7 0 -14 13 -71 17 -83 5 -3 -4 -17 -8 -29 -10 -17 -2 -19 -1 -7 7 13 8
12 10 -2 10 -10 0 -18 -6 -18 -12 0 -8 -5 -6 -11 4 -10 19 -43 13 -32 -6 3 -6
1 -6 -8 2 -14 13 -53 17 -46 5 3 -5 -6 -9 -19 -9 -23 -2 -24 -1 -7 11 16 12
14 13 -12 8 -17 -2 -37 -7 -45 -10 -8 -3 -24 -8 -35 -10 -16 -2 -17 -1 -5 7
13 8 12 10 -2 10 -10 0 -18 -6 -18 -12 0 -8 -5 -6 -11 4 -10 19 -43 13 -32 -6
3 -6 1 -6 -8 2 -16 14 -33 16 -24 2 3 -5 2 -10 -3 -10 -6 0 -12 7 -16 15 -3 8
-12 12 -21 9 -8 -3 -12 -11 -8 -18 3 -6 1 -6 -8 2 -14 13 -53 17 -46 5 3 -5
-6 -9 -19 -9 -23 -2 -24 -1 -7 11 16 12 14 13 -12 8 -17 -2 -37 -7 -45 -10 -8
-3 -24 -8 -35 -10 -16 -2 -17 -1 -5 7 13 8 12 10 -2 10 -10 0 -18 -6 -18 -12
0 -8 -5 -6 -11 4 -10 19 -43 13 -32 -6 3 -6 1 -6 -8 2 -14 13 -53 17 -46 5 3
-5 -6 -9 -19 -9 -23 -2 -24 -1 -7 11 16 12 14 13 -12 8 -17 -2 -37 -7 -45 -10
-8 -3 -24 -8 -35 -10 -16 -2 -17 -1 -5 7 12 8 9 10 -13 10 -20 0 -26 -4 -21
-12 6 -10 4 -10 -7 0 -14 13 -71 17 -83 5 -3 -4 -17 -8 -29 -10 -17 -2 -19 -1
-7 7 13 9 13 10 -1 10 -8 0 -21 -6 -28 -12 -11 -11 -12 -10 -6 1 6 10 2 11
-15 6 -15 -5 -20 -4 -16 4 5 7 1 9 -8 5 -9 -3 -14 -9 -12 -13 3 -4 -8 -7 -23
-6 -19 0 -27 4 -24 13 4 8 0 10 -11 6 -9 -3 -13 -11 -9 -18 4 -6 -1 -5 -10 3
-14 11 -17 11 -17 0 -1 -10 -4 -9 -11 3 -10 19 -43 13 -32 -6 3 -6 1 -6 -8 2
-14 13 -53 17 -46 5 3 -5 -6 -9 -19 -9 -23 -2 -24 -1 -7 11 16 12 14 13 -12 8
-17 -2 -37 -7 -45 -10 -8 -3 -24 -8 -35 -10 -16 -2 -17 -1 -5 7 13 8 12 10 -2
10 -10 0 -18 -6 -18 -12 0 -8 -5 -6 -11 4 -10 19 -43 13 -32 -6 3 -6 1 -6 -8
2 -15 14 -33 17 -25 4 3 -5 -1 -9 -9 -9 -8 0 -12 5 -8 10 3 5 -4 6 -17 2 -15
-5 -20 -4 -16 4 5 7 1 9 -8 5 -9 -3 -14 -9 -12 -13 3 -4 -8 -7 -23 -6 -19 0
-27 4 -24 13 4 8 0 10 -11 6 -9 -3 -13 -11 -9 -18 4 -7 2 -7 -7 1 -9 9 -19 9
-33 2 -12 -7 -17 -7 -13 -1 3 5 -3 12 -15 15 -16 4 -18 3 -9 -8z m164 -136 c8
-9 8 -10 -3 -4 -10 6 -13 4 -8 -7 3 -9 0 -21 -6 -28 -10 -10 -8 -12 7 -6 16 5
17 4 6 -9 -10 -12 -10 -15 1 -16 10 0 11 -2 2 -6 -7 -2 -13 -9 -13 -14 0 -6 3
-8 8 -6 4 3 8 -6 9 -20 1 -19 -1 -22 -8 -12 -10 16 -12 8 -9 -41 1 -19 7 -41
13 -49 9 -12 9 -13 0 -7 -9 5 -13 0 -13 -14 0 -14 4 -19 13 -14 8 5 9 4 2 -5
-6 -6 -47 -12 -93 -13 -69 -1 -86 2 -100 17 -16 17 -16 17 0 12 12 -4 15 -2
11 8 -3 8 -9 13 -13 10 -5 -3 -7 2 -6 11 1 8 9 20 17 25 11 7 11 9 -4 9 -10 0
-15 5 -12 10 4 6 11 8 16 5 5 -3 6 1 3 9 -3 9 -9 14 -13 11 -11 -6 -6 27 7 53
7 12 8 22 3 22 -5 0 -12 -6 -15 -12 -2 -7 -4 -3 -2 9 1 12 5 26 9 29 12 12 8
26 -5 18 -7 -4 -8 -3 -4 5 4 6 12 9 17 6 5 -4 9 1 9 9 0 8 10 16 23 18 47 7
140 -1 151 -13z m1894 12 c6 -1 12 -10 12 -20 0 -11 4 -23 10 -26 6 -4 7 1 3
12 -3 10 -2 15 2 11 5 -5 9 -28 9 -53 1 -34 -3 -45 -14 -45 -13 0 -13 -2 -1
-9 16 -10 23 -69 9 -77 -4 -3 -8 0 -8 7 0 7 -2 10 -5 7 -8 -7 6 -39 14 -34 8
5 7 -41 -1 -50 -12 -11 -173 -5 -177 7 -2 8 -6 7 -12 -2 -6 -10 -8 -7 -6 8 0
12 5 19 9 17 13 -8 9 11 -4 25 -10 11 -10 13 0 7 6 -4 12 -3 12 1 0 5 -6 15
-12 22 -10 11 -10 13 0 7 7 -4 12 -1 12 8 0 9 -6 16 -12 16 -8 1 -6 6 5 14 22
17 22 30 1 22 -14 -5 -15 -4 -4 9 10 12 10 15 -1 15 -8 0 -5 6 7 14 16 13 17
15 3 21 -9 3 -16 12 -16 20 0 8 4 12 8 10 4 -3 10 2 13 11 3 8 2 12 -4 9 -6
-3 -10 -2 -10 4 0 14 65 19 158 12z m-1964 -403 c-4 -6 -1 -9 7 -6 14 5 69
-17 69 -28 0 -3 -4 -2 -10 1 -5 3 -10 -1 -10 -10 0 -9 4 -14 8 -11 4 2 8 -4 8
-14 0 -15 -3 -17 -15 -7 -11 9 -10 4 3 -17 15 -24 16 -28 3 -23 -11 4 -14 2
-10 -8 3 -8 8 -13 12 -11 4 3 7 -4 7 -14 0 -12 -4 -16 -11 -10 -15 12 -7 -60
9 -79 8 -11 8 -13 -1 -7 -12 6 -18 -11 -14 -36 0 -5 -2 -8 -7 -9 -4 0 -15 -2
-24 -4 -10 -2 -18 1 -18 6 0 5 -5 9 -11 9 -5 0 -8 -4 -5 -8 2 -4 -11 -8 -30
-8 -19 0 -34 4 -34 8 0 4 -5 8 -11 8 -5 0 -7 -6 -3 -12 5 -8 0 -7 -11 2 -10 8
-21 14 -24 12 -9 -3 -8 139 1 144 4 3 8 10 8 15 0 6 -4 8 -8 5 -4 -2 -8 4 -8
15 0 21 12 25 19 7 4 -10 6 -10 6 0 1 7 -5 15 -13 18 -14 5 -14 51 1 65 4 4
27 4 50 0 43 -8 73 5 55 24 -4 5 -1 5 6 1 7 -4 9 -12 6 -18z m1841 2 c-4 -6
14 -9 45 -9 28 1 54 -1 57 -5 3 -3 12 -1 20 5 9 9 13 8 13 0 0 -6 8 -11 18
-11 16 -1 16 -1 -1 -14 -13 -10 -14 -15 -4 -19 13 -5 17 -61 4 -73 -4 -4 -7
-1 -7 6 0 7 -2 11 -5 8 -9 -8 6 -38 16 -32 5 3 6 -2 3 -10 -3 -9 -11 -13 -18
-10 -6 3 -4 0 4 -8 16 -14 23 -68 9 -68 -5 0 -6 -7 -2 -15 3 -10 0 -15 -8 -13
-8 2 -13 -4 -11 -13 1 -9 -4 -16 -13 -16 -8 0 -11 5 -8 10 4 6 1 7 -8 2 -18
-12 -49 -14 -43 -3 3 4 1 8 -5 8 -5 0 -12 -6 -15 -12 -5 -10 -7 -10 -12 0 -3
6 -10 12 -15 12 -6 0 -8 -4 -5 -8 3 -5 -1 -9 -9 -9 -14 0 -17 5 -19 35 -1 7
-8 17 -16 22 -12 8 -12 10 3 16 9 3 17 11 17 16 0 6 -7 7 -16 4 -14 -5 -15 -4
-4 9 10 12 10 15 -1 16 -10 0 -11 2 -1 6 6 2 12 9 12 14 0 6 -4 8 -8 5 -12 -7
-8 25 6 51 10 18 9 25 -4 37 -14 15 -14 17 0 22 9 3 13 10 10 15 -3 6 0 16 6
24 14 17 24 20 15 5z m-25 -84 c0 -3 -4 -8 -10 -11 -5 -3 -10 -1 -10 4 0 6 5
11 10 11 6 0 10 -2 10 -4z m185 -204 c-3 -3 -11 0 -18 7 -9 10 -8 11 6 5 10
-3 15 -9 12 -12z m-2080 -131 c-4 10 0 16 9 16 8 0 12 -5 9 -11 -4 -6 1 -5 10
3 11 9 17 10 17 2 0 -6 5 -11 11 -11 5 0 8 3 6 8 -3 4 12 7 33 7 21 1 36 -3
34 -7 -3 -5 -10 -5 -16 -2 -7 4 -8 2 -4 -4 4 -6 13 -9 21 -5 18 6 19 -8 3 -26
-11 -12 -10 -13 6 -7 16 5 17 4 6 -9 -10 -12 -10 -15 1 -16 11 0 11 -2 1 -6
-10 -4 -10 -8 0 -21 10 -12 10 -14 1 -8 -8 4 -13 1 -13 -8 0 -9 4 -16 8 -16 5
0 9 -6 9 -14 0 -9 -7 -12 -16 -8 -12 4 -11 0 4 -18 11 -13 14 -20 8 -16 -8 4
-13 1 -13 -8 0 -9 4 -16 8 -16 11 0 13 -39 1 -45 -5 -3 -6 1 -3 9 3 9 1 16 -4
16 -6 0 -9 -11 -6 -25 3 -17 0 -25 -11 -26 -8 -1 -23 -2 -32 -3 -10 -1 -24 -5
-32 -10 -9 -6 -12 -5 -8 1 4 6 -3 13 -14 16 -16 4 -19 2 -15 -10 6 -14 4 -14
-10 -2 -10 8 -18 12 -18 10 -1 -2 -11 -1 -24 3 -20 7 -21 9 -7 23 9 8 13 18
10 21 -3 4 -10 0 -16 -8 -7 -12 -8 -10 -6 7 2 12 6 26 10 29 9 10 9 26 -1 21
-4 -3 -7 8 -7 23 -1 16 3 26 7 24 4 -3 8 -1 8 5 0 5 -4 12 -8 15 -4 2 -7 20
-6 38 3 44 3 45 14 28 6 -9 10 -10 10 -3 0 7 -8 17 -17 22 -17 10 -17 10 0 11
9 0 17 8 17 17 0 15 2 14 15 -3 10 -13 13 -14 10 -3z m1909 -4 c-3 -7 2 -3 10
7 12 15 16 16 16 5 0 -9 3 -10 8 -3 8 13 42 15 42 2 0 -4 5 -8 11 -8 5 0 8 4
5 8 -2 4 10 8 29 8 24 0 31 -4 27 -15 -3 -9 -1 -12 6 -7 6 3 13 2 17 -4 3 -5
1 -10 -4 -10 -6 0 -11 -7 -11 -16 0 -8 4 -12 10 -9 6 3 7 -1 4 -9 -3 -9 -11
-13 -18 -10 -6 3 -4 0 4 -8 16 -14 23 -68 8 -68 -5 0 -4 -9 2 -20 9 -17 8 -20
-7 -20 -14 0 -15 -2 -4 -9 8 -5 15 -23 15 -40 1 -35 -7 -39 -107 -40 -61 -1
-69 1 -74 19 -3 11 -9 18 -13 15 -5 -3 -7 3 -6 12 2 9 8 19 14 21 7 2 12 8 12
14 0 6 -7 7 -16 4 -14 -5 -15 -4 -4 9 10 12 10 15 -1 16 -10 0 -11 2 -1 6 6 2
12 9 12 14 0 6 -4 8 -8 5 -10 -6 -9 30 1 40 13 13 8 46 -5 38 -10 -6 -10 -4 0
7 6 7 12 17 12 22 0 4 -6 5 -12 1 -7 -4 -5 2 5 13 9 11 14 23 10 28 -5 4 -2 5
5 1 7 -4 10 -13 6 -19z m171 -449 c0 -36 -4 -48 -15 -48 -13 0 -13 -2 -1 -9
20 -13 20 -71 1 -71 -13 -1 -13 -2 1 -10 14 -8 16 -22 9 -65 -1 -5 -5 -1 -10
10 -8 18 -9 17 -9 -7 -1 -31 1 -30 -99 -30 -72 0 -81 4 -61 29 12 15 12 16 -5
10 -16 -6 -17 -5 -6 8 10 12 10 15 -1 15 -10 1 -9 4 4 14 22 17 22 30 1 22
-14 -5 -15 -4 -4 9 8 10 9 15 1 15 -6 0 -11 5 -11 11 0 5 5 7 10 4 14 -9 12 8
-2 24 -10 11 -10 13 0 7 6 -4 12 -3 12 1 0 5 -6 15 -12 22 -10 11 -10 13 0 7
9 -5 12 5 12 38 0 52 4 54 115 46 l70 -5 0 -47z m-1385 -342 c0 -2 -7 -6 -15
-10 -8 -3 -15 -1 -15 4 0 6 7 10 15 10 8 0 15 -2 15 -4z"/>
<path d="M246 1622 c-2 -4 -1 -14 4 -22 7 -11 9 -9 7 8 -1 24 -3 26 -11 14z"/>
<path d="M246 1475 c4 -8 8 -15 10 -15 2 0 4 7 4 15 0 8 -4 15 -10 15 -5 0 -7
-7 -4 -15z"/>
<path d="M246 1437 c3 -10 9 -15 12 -12 3 3 0 11 -7 18 -10 9 -11 8 -5 -6z"/>
<path d="M240 1400 c0 -5 5 -10 11 -10 5 0 7 5 4 10 -3 6 -8 10 -11 10 -2 0
-4 -4 -4 -10z"/>
<path d="M2307 2179 c7 -7 15 -10 18 -7 3 3 -2 9 -12 12 -14 6 -15 5 -6 -5z"/>
</g>
</svg>
