<svg width="46" height="65" viewBox="0 0 46 65" fill="none" xmlns="http://www.w3.org/2000/svg">
<rect width="46" height="64.5962" transform="translate(0 0.154583)" fill="white"/>
<g clip-path="url(#clip0_11_31)">
<path d="M32.5343 44.0513C34.1999 43.3503 36.5651 42.4898 39.0413 42.0311C39.1535 41.054 39.2142 40.0562 39.2142 39.0396C39.2142 38.6593 39.2051 38.2804 39.1889 37.9051V32.4721C38.0291 37.2106 35.654 41.2654 32.5343 44.0513Z" fill="#5E1914"/>
<path d="M22.6075 46.7308C31.7794 46.7308 39.2146 37.3889 39.2146 25.865C39.2146 14.3412 31.7794 5.00001 22.6075 5.00001C13.4356 5.00001 6.00037 14.3419 6.00037 25.865C5.99995 37.3889 13.4356 46.7308 22.6075 46.7308ZM8.75672 25.8636C8.75672 22.509 10.9212 19.79 13.591 19.79C16.2609 19.79 18.4254 22.5097 18.4254 25.8636C18.4254 29.2182 16.2609 31.9379 13.591 31.9379C10.9207 31.9379 8.75672 29.2182 8.75672 25.8636ZM36.4583 25.8636C36.4583 29.2182 34.293 31.9379 31.6231 31.9379C28.9532 31.9379 26.7888 29.2182 26.7888 25.8636C26.7888 22.509 28.9532 19.79 31.6231 19.79C34.293 19.79 36.4583 22.5097 36.4583 25.8636ZM17.7723 37.1926C17.7723 33.8388 19.9372 31.1183 22.6062 31.1183C25.2766 31.1183 27.441 33.8388 27.441 37.1926C27.441 40.5479 25.2761 43.2662 22.6062 43.2662C19.9368 43.2662 17.7723 40.5479 17.7723 37.1926ZM21.375 25.8643C21.375 25.0095 21.927 24.3164 22.6075 24.3164C23.288 24.3164 23.84 25.0095 23.84 25.8643C23.84 26.7191 23.288 27.4129 22.6075 27.4129C21.927 27.4129 21.375 26.7199 21.375 25.8643ZM27.4414 14.5374C27.4414 17.892 25.2766 20.6118 22.6067 20.6118C19.9372 20.6118 17.7728 17.892 17.7728 14.5374C17.7728 11.1822 19.9376 8.46313 22.6067 8.46313C25.2766 8.46242 27.4414 11.1822 27.4414 14.5374Z" fill="#5E1914"/>
<path d="M40.2086 42.7378C35.745 43.4402 30.1305 45.9212 27.6672 47.0852C26.0651 47.7092 24.3671 48.0479 22.6071 48.0479C14.8236 48.0479 8.2193 41.4746 6.01871 32.4462V38.1085C6.0079 38.4177 6 38.7276 6 39.0396C6 50.5642 13.4352 59.9053 22.6071 59.9053C25.6229 59.9053 28.4486 58.8902 30.8858 57.1252C40.034 52.987 45.099 54.8986 45.099 54.8986V43.1289C43.9484 42.466 42.1922 42.4265 40.2086 42.7378Z" fill="#5E1914"/>
</g>
<defs>
<clipPath id="clip0_11_31">
<rect width="39.099" height="54.9053" fill="white" transform="translate(6 5)"/>
</clipPath>
</defs>
</svg>
